<svg t="1733758221665" class="icon" viewBox="0 0 1024 1024" version="1.1" xmlns="http://www.w3.org/2000/svg" p-id="22954" width="64" height="64" class="text-black dark:text-white"><path d="M284.596 360.521c-38.522 0-69.866 31.341-69.866 69.867 0 38.53 31.356 69.866 69.866 69.866 38.518 0 69.867-31.336 69.867-69.866 0-38.526-31.336-69.867-69.867-69.867z m0 99.669c-16.419 0-29.79-13.359-29.79-29.785 0-16.439 13.371-29.795 29.79-29.795s29.79 13.356 29.79 29.795c0 16.426-13.358 29.785-29.79 29.785z m321.185-99.669c-38.523 0-69.871 31.341-69.871 69.867 0 38.53 31.36 69.866 69.871 69.866 38.538 0 69.899-31.336 69.899-69.866-0.003-38.526-31.361-69.867-69.899-69.867z m0 99.669c-16.411 0-29.795-13.359-29.795-29.785 0-16.439 13.384-29.795 29.795-29.795 16.439 0 29.825 13.356 29.825 29.795-0.003 16.426-13.361 29.785-29.825 29.785z m267.88 227.453c0-116.068 64.38-156.901 67.003-158.504 9.524-5.636 12.653-17.926 7.018-27.45-5.648-9.542-17.95-12.669-27.462-7.033-3.535 2.102-86.637 52.915-86.637 192.987 0 79.369 27.108 130.392 48.883 171.393 15.615 29.353 27.93 52.56 27.93 79.084 0 19.007-4.136 32.73-11.949 39.735-7.958 7.122-18.356 6.066-18.551 6.066a19.529 19.529 0 0 0-2.897-0.208h-73.758c8.585-13.438 13.646-29.327 13.646-46.431V33.904c0-8.995-6.002-16.89-14.677-19.309-8.649-2.439-17.874 1.245-22.53 8.943l-97.87 162c-30.03-0.571-118.272-1.259-382.427-1.259-56.09 0-83.852 0.04-97.876 0.139l-90.16-173.6C107.084 2.612 97.723-1.621 88.815 0.584 79.83 2.775 73.515 10.818 73.515 20.048v917.209c0 47.696 38.793 86.508 86.5 86.508H875.904c1.316 0.116 3.182 0.235 5.504 0.235 9.8 0 27.423-2.18 42.947-15.578 17.324-14.977 26.118-38.627 26.118-70.329 0-36.516-15.837-66.336-32.602-97.895-20.726-38.968-44.208-83.178-44.208-152.555zM466.225 983.701H160.016c-25.597 0-46.424-20.835-46.424-46.43V102.126l58.014 111.69c3.671 7.11 11.461 11.226 19.053 10.768 4.02-0.104 34.506-0.227 108.724-0.227 154.031 0 375.983 0.482 391.536 1.246 7.59 0.81 15.236-2.82 19.308-9.556l66.584-110.222v831.46c0 25.597-20.82 46.432-46.417 46.432h-264.17v-0.015z m14.037-443.007h-70.134c-11.058 0-20.04 8.963-20.04 20.038 0 11.078 8.982 20.04 20.04 20.04h15.204l-1.482 25.506c-0.658 11.05 7.788 20.52 18.831 21.174 0.391 0.012 0.79 0.027 1.175 0.027 10.541 0 19.373-8.233 19.987-18.878l1.617-27.84h14.799c11.063 0 20.038-8.96 20.038-20.039s-8.972-20.028-20.035-20.028z" fill="currentColor" p-id="22955"></path></svg>